<svg width="220" height="48" viewBox="0 0 220 48" fill="none" xmlns="http://www.w3.org/2000/svg">
<rect x="2" y="4" width="40" height="40" rx="12" fill="white"/>
<path d="M15 14H24.5C31.4036 14 36 18.2748 36 24C36 29.7252 31.4036 34 24.5 34H15V14ZM23.9 29.6C27.7609 29.6 30.4 27.3128 30.4 24C30.4 20.6872 27.7609 18.4 23.9 18.4H20.5V29.6H23.9Z" fill="#5044E5"/>
<path d="M55 33V15.6H67.6V19.8H59.9V22.4H67V26.4H59.9V28.8H67.9V33H55ZM71.0734 33V19.8H75.6734V33H71.0734ZM73.3734 18.2C72.6265 18.2 72.0076 17.9548 71.5167 17.464C71.0258 16.9508 70.7804 16.3318 70.7804 15.607C70.7804 14.8822 71.0258 14.274 71.5167 13.782C72.0076 13.2688 72.6265 13.0122 73.3734 13.0122C74.1202 13.0122 74.7284 13.2688 75.198 13.782C75.6889 14.274 75.9344 14.8822 75.9344 15.607C75.9344 16.3318 75.6889 16.9508 75.198 17.464C74.7284 17.9548 74.1202 18.2 73.3734 18.2ZM79.0201 33V19.8H83.6201V21.24C84.4732 20.088 85.8074 19.512 87.6201 19.512C89.1771 19.512 90.4366 20.0028 91.3983 20.984C92.381 21.9652 92.8723 23.3256 92.8723 25.064V33H88.2723V25.88C88.2723 25.0488 88.0485 24.3984 87.601 23.928C87.1535 23.4576 86.5454 23.2224 85.7776 23.2224C84.9885 23.2224 84.3696 23.4576 83.9199 23.928C83.4701 24.3984 83.2452 25.0488 83.2452 25.88V33H79.0201ZM100.413 38.4C98.408 38.4 96.7666 37.844 95.4886 36.732L97.6966 33.492C98.6563 34.2584 99.7442 34.6416 100.96 34.6416C102.73 34.6416 103.615 33.8848 103.615 32.3712V31.4C102.73 32.04 101.645 32.36 100.362 32.36C98.6137 32.36 97.1535 31.752 95.9817 30.536C94.8098 29.2987 94.2239 27.7947 94.2239 26.024C94.2239 24.232 94.8098 22.728 95.9817 21.512C97.1535 20.296 98.6137 19.688 100.362 19.688C101.73 19.688 102.89 20.072 103.844 20.84V19.8H108.418V32.56C108.418 34.416 107.764 35.8576 106.456 36.8848C105.169 37.8944 103.154 38.4 100.413 38.4ZM101.423 28.56C102.275 28.56 102.993 28.296 103.576 27.768C104.181 27.24 104.483 26.592 104.483 25.824C104.483 25.0347 104.181 24.3867 103.576 23.88C102.993 23.352 102.275 23.088 101.423 23.088C100.571 23.088 99.8517 23.352 99.2673 23.88C98.6841 24.3867 98.3925 25.0347 98.3925 25.824C98.3925 26.592 98.6841 27.24 99.2673 27.768C99.8517 28.296 100.571 28.56 101.423 28.56ZM111.894 33V15.2H116.494V33H111.894ZM125.781 33.288C123.712 33.288 121.995 32.6588 120.629 31.4C119.264 30.1412 118.581 28.552 118.581 26.632C118.581 24.6907 119.243 23.0907 120.565 21.832C121.909 20.552 123.595 19.912 125.621 19.912C127.541 19.912 129.109 20.5307 130.325 21.768C131.541 23.0053 132.149 24.584 132.149 26.504C132.149 27.144 132.095 27.6667 131.989 28.072H123.013C123.376 29.352 124.453 29.992 126.245 29.992C127.248 29.992 128.229 29.736 129.189 29.224L130.821 32.048C129.371 32.8747 127.691 33.288 125.781 33.288ZM123.035 25.36H127.771C127.621 24.72 127.328 24.2267 126.893 23.88C126.467 23.5333 125.925 23.36 125.269 23.36C124.587 23.36 124.021 23.5333 123.573 23.88C123.125 24.2267 122.946 24.72 123.035 25.36ZM141.463 33.312C139.351 33.312 137.612 32.672 136.247 31.392C134.903 30.0907 134.231 28.4907 134.231 26.592C134.231 24.6933 134.903 23.104 136.247 21.824C137.612 20.5227 139.351 19.872 141.463 19.872C143.489 19.872 145.1 20.544 146.295 21.888L143.351 24.832C142.796 24.192 142.167 23.872 141.463 23.872C140.652 23.872 139.98 24.128 139.447 24.64C138.919 25.152 138.655 25.8027 138.655 26.592C138.655 27.3813 138.919 28.032 139.447 28.544C139.98 29.056 140.652 29.312 141.463 29.312C142.209 29.312 142.839 28.992 143.351 28.352L146.295 31.296C145.1 32.64 143.489 33.312 141.463 33.312ZM153.444 33.288C151.695 33.288 150.227 32.6693 149.036 31.432C147.843 30.1733 147.247 28.5787 147.247 26.648C147.247 24.696 147.843 23.1013 149.036 21.864C150.227 20.6267 151.695 20.008 153.444 20.008C154.831 20.008 155.988 20.4347 156.916 21.288V15.2H161.516V33H156.916V31.72C155.988 32.7653 154.831 33.288 153.444 33.288ZM154.41 29.232C155.241 29.232 155.935 28.968 156.49 28.44C157.046 27.912 157.324 27.248 157.324 26.448C157.324 25.648 157.046 24.984 156.49 24.456C155.935 23.928 155.241 23.664 154.41 23.664C153.579 23.664 152.884 23.928 152.329 24.456C151.795 24.984 151.528 25.648 151.528 26.448C151.528 27.248 151.795 27.912 152.329 28.44C152.884 28.968 153.579 29.232 154.41 29.232Z" fill="white"/>
</svg>
